<?xml version="1.0" encoding="UTF-8"?>
<svg xmlns="http://www.w3.org/2000/svg" xmlns:xlink="http://www.w3.org/1999/xlink" width="100px" height="36px" viewBox="0 0 100 36" version="1.1">
<g id="surface1">
<path style=" stroke:none;fill-rule:nonzero;fill:rgb(29.803923%,29.803923%,29.803923%);fill-opacity:1;" d="M 25.445312 16.570312 C 26.0625 16.71875 26.15625 17.0625 26.292969 17.304688 C 26.496094 17.675781 26.621094 18.046875 26.710938 18.425781 C 26.714844 18.441406 26.71875 18.457031 26.726562 18.476562 C 26.753906 18.597656 26.777344 18.71875 26.800781 18.839844 C 26.804688 18.859375 26.804688 18.875 26.808594 18.894531 C 26.890625 19.363281 26.878906 19.835938 26.878906 20.304688 C 26.878906 20.398438 26.878906 20.496094 26.878906 20.589844 C 26.902344 22.832031 26.902344 22.832031 26.101562 23.199219 C 25.824219 23.292969 25.628906 23.3125 25.246094 23.3125 C 24.851562 23.308594 24.632812 23.300781 24.332031 23.207031 C 23.851562 22.960938 24.082031 22.628906 24.171875 22.351562 C 24.652344 20.878906 24.597656 19.371094 24 17.902344 C 22.078125 18.601562 21.019531 19.628906 20.152344 20.542969 C 20.121094 20.574219 20.09375 20.601562 20.0625 20.632812 C 20.007812 20.691406 19.957031 20.75 19.902344 20.804688 C 19.730469 20.992188 19.511719 21.144531 19.046875 21.253906 C 18.671875 21.277344 18.292969 21.289062 17.945312 21.226562 C 17.503906 21.117188 17.332031 20.925781 17.179688 20.746094 C 17.160156 20.726562 17.140625 20.703125 17.121094 20.683594 C 17.015625 20.566406 16.914062 20.453125 16.816406 20.335938 C 16.101562 19.503906 14.871094 18.742188 13.28125 18.085938 C 13.160156 18.035156 13.042969 17.984375 12.933594 17.929688 C 12.464844 18.519531 12.242188 19.136719 12.132812 19.753906 C 12.128906 19.78125 12.121094 19.808594 12.117188 19.839844 C 12.054688 20.160156 12.054688 20.484375 12.058594 20.808594 C 12.058594 20.902344 12.058594 21 12.058594 21.09375 C 12.058594 21.386719 12.0625 21.675781 12.117188 21.96875 C 12.140625 22.085938 12.148438 22.203125 12.148438 22.320312 C 12.152344 22.339844 12.152344 22.359375 12.152344 22.378906 C 12.15625 22.59375 12.035156 22.777344 11.632812 22.9375 C 11.425781 23 11.199219 22.996094 10.941406 22.996094 C 10.875 23 10.804688 23 10.734375 23 C 10.417969 22.988281 10.25 22.9375 10.023438 22.859375 C 9.480469 22.609375 9.589844 22.230469 9.589844 21.929688 C 9.589844 21.894531 9.589844 21.855469 9.589844 21.816406 C 9.585938 21.734375 9.585938 21.652344 9.585938 21.574219 C 9.585938 21.492188 9.585938 21.410156 9.585938 21.332031 C 9.578125 20.597656 9.625 19.867188 9.855469 19.140625 C 9.859375 19.125 9.867188 19.105469 9.871094 19.085938 C 10.457031 17.152344 10.457031 17.152344 11.648438 16.765625 C 12.03125 16.699219 12.414062 16.683594 12.816406 16.734375 C 13.425781 16.832031 13.910156 16.996094 14.335938 17.175781 C 14.460938 17.230469 14.589844 17.28125 14.722656 17.332031 C 15.125 17.484375 15.488281 17.648438 15.84375 17.816406 C 15.929688 17.855469 16.015625 17.890625 16.097656 17.929688 C 17.171875 18.417969 17.964844 18.972656 18.667969 19.535156 C 18.714844 19.5 18.761719 19.46875 18.808594 19.433594 C 18.855469 19.402344 18.898438 19.367188 18.945312 19.335938 C 19.101562 19.222656 19.257812 19.109375 19.414062 18.996094 C 20.089844 18.496094 20.828125 18.015625 21.734375 17.566406 C 21.765625 17.550781 21.796875 17.535156 21.832031 17.519531 C 24.117188 16.390625 24.117188 16.390625 25.445312 16.570312 Z M 25.445312 16.570312 "/>
<path style=" stroke:none;fill-rule:nonzero;fill:rgb(29.803923%,29.803923%,29.803923%);fill-opacity:1;" d="M 53.453125 18.113281 C 54.828125 18.582031 54.960938 19.367188 55.007812 20.007812 C 55.0625 22.488281 55.0625 22.488281 53.746094 22.988281 C 53.417969 23.09375 53.207031 23.121094 52.765625 23.117188 C 52.527344 23.109375 52.421875 23.082031 52.265625 23.015625 C 51.960938 22.75 52.246094 22.402344 52.363281 22.125 C 52.636719 21.46875 52.816406 20.824219 52.824219 20.160156 C 52.824219 20.136719 52.824219 20.113281 52.828125 20.089844 C 52.835938 19.636719 52.828125 19.089844 51.929688 18.734375 C 51.480469 18.601562 51.023438 18.605469 50.464844 18.625 C 49.902344 18.671875 49.53125 18.773438 49.226562 18.949219 C 48.554688 19.394531 48.519531 19.925781 48.457031 20.417969 C 48.457031 20.441406 48.453125 20.464844 48.449219 20.484375 C 48.375 21.078125 48.320312 21.671875 48.535156 22.261719 C 48.601562 22.453125 48.65625 22.632812 48.425781 22.808594 C 48.171875 22.910156 47.925781 22.9375 47.558594 22.953125 C 47.222656 22.941406 47.074219 22.894531 46.828125 22.816406 C 46.042969 22.453125 46.246094 21.8125 46.25 21.386719 C 46.25 21.339844 46.25 21.339844 46.25 21.292969 C 46.253906 20.875 46.28125 20.464844 46.371094 20.050781 C 46.402344 19.898438 46.417969 19.75 46.425781 19.597656 C 46.425781 19.574219 46.429688 19.554688 46.429688 19.535156 C 46.433594 19.367188 46.304688 19.242188 45.988281 19.121094 C 45.410156 18.996094 44.8125 18.980469 44.160156 19.023438 C 43.523438 19.082031 43.019531 19.214844 42.675781 19.414062 C 41.898438 19.941406 41.851562 20.558594 41.855469 21.140625 C 41.855469 21.160156 41.855469 21.175781 41.855469 21.195312 C 41.855469 21.691406 41.910156 22.1875 42.023438 22.683594 C 42.027344 22.714844 42.035156 22.742188 42.042969 22.773438 C 42.050781 22.8125 42.050781 22.8125 42.0625 22.851562 C 42.070312 22.957031 42.007812 23.019531 41.867188 23.113281 C 41.589844 23.210938 41.359375 23.234375 40.980469 23.238281 C 40.640625 23.238281 40.453125 23.222656 40.199219 23.136719 C 39.746094 22.921875 39.664062 22.648438 39.628906 22.386719 C 39.625 22.371094 39.625 22.351562 39.621094 22.332031 C 39.589844 22.105469 39.585938 21.875 39.585938 21.648438 C 39.585938 21.625 39.585938 21.601562 39.585938 21.574219 C 39.589844 20.789062 39.722656 20.011719 39.96875 19.230469 C 39.996094 19.140625 40.019531 19.050781 40.046875 18.960938 C 40.058594 18.914062 40.074219 18.871094 40.085938 18.824219 C 40.09375 18.804688 40.097656 18.785156 40.101562 18.765625 C 40.148438 18.640625 40.277344 18.582031 40.550781 18.507812 C 40.863281 18.433594 41.164062 18.417969 41.535156 18.433594 C 41.929688 18.480469 42.230469 18.570312 42.535156 18.671875 C 42.550781 18.65625 42.566406 18.644531 42.582031 18.628906 C 42.90625 18.421875 43.601562 18.328125 44.199219 18.265625 C 44.4375 18.246094 44.4375 18.246094 44.667969 18.238281 C 44.726562 18.238281 44.785156 18.238281 44.84375 18.238281 C 45.898438 18.222656 46.570312 18.355469 47.332031 18.601562 C 47.371094 18.582031 47.410156 18.566406 47.449219 18.546875 C 48.316406 18.160156 49.242188 17.902344 50.664062 17.839844 C 51.703125 17.804688 52.632812 17.867188 53.453125 18.113281 Z M 53.453125 18.113281 "/>
<path style=" stroke:none;fill-rule:nonzero;fill:rgb(29.803923%,29.803923%,29.803923%);fill-opacity:1;" d="M 54.199219 10.199219 C 54.472656 10.269531 54.605469 10.320312 54.707031 10.433594 C 54.753906 10.53125 54.707031 10.613281 54.601562 10.703125 C 54.429688 10.78125 54.261719 10.839844 54 10.871094 C 53.703125 10.882812 53.4375 10.867188 53.140625 10.847656 C 52.515625 10.808594 52 10.816406 51.398438 10.894531 C 51.335938 10.917969 51.335938 10.917969 51.265625 10.945312 C 51.265625 10.96875 51.265625 10.992188 51.265625 11.015625 C 51.980469 11.191406 52.789062 11.226562 53.628906 11.273438 C 54.503906 11.324219 55.207031 11.421875 55.753906 11.679688 C 56.007812 11.828125 55.988281 12 55.933594 12.167969 C 55.84375 12.277344 55.671875 12.359375 55.492188 12.449219 C 55.460938 12.464844 55.429688 12.480469 55.402344 12.496094 C 55.378906 12.503906 55.355469 12.515625 55.332031 12.527344 C 55.394531 12.539062 55.394531 12.539062 55.457031 12.550781 C 56.355469 12.710938 57.203125 12.882812 58 13.105469 C 58.039062 13.113281 58.074219 13.125 58.113281 13.136719 C 60.835938 13.90625 62.625 15.046875 63.039062 16.285156 C 63.070312 16.394531 63.082031 16.503906 63.085938 16.613281 C 63.089844 16.632812 63.089844 16.648438 63.09375 16.667969 C 63.097656 16.796875 63.03125 16.867188 62.800781 16.96875 C 62.542969 17.050781 62.292969 17.050781 61.960938 17.046875 C 61.71875 17.035156 61.582031 17.003906 61.398438 16.945312 C 61.214844 16.851562 61.167969 16.777344 61.132812 16.664062 C 61.125 16.632812 61.113281 16.605469 61.105469 16.570312 C 61.101562 16.554688 61.09375 16.539062 61.089844 16.523438 C 60.996094 16.214844 60.867188 15.917969 60.601562 15.625 C 60.585938 15.609375 60.570312 15.59375 60.558594 15.574219 C 59.679688 14.597656 57.65625 13.769531 55.132812 13.296875 C 52.453125 12.808594 49.363281 12.714844 46.503906 13.050781 C 45.136719 13.21875 43.890625 13.453125 42.800781 13.800781 C 42.742188 13.816406 42.683594 13.835938 42.625 13.855469 C 42.457031 13.910156 42.296875 13.960938 42.132812 14.015625 C 42.09375 14.027344 42.054688 14.042969 42.015625 14.054688 C 40.035156 14.730469 39.050781 15.730469 38.851562 16.6875 C 38.816406 16.828125 38.71875 16.90625 38.429688 17 C 38.121094 17.054688 37.871094 17.058594 37.535156 17.039062 C 37.230469 16.988281 37.078125 16.933594 36.933594 16.824219 C 36.914062 16.757812 36.90625 16.695312 36.910156 16.628906 C 36.910156 16.613281 36.910156 16.59375 36.910156 16.574219 C 36.996094 15.339844 38.707031 14.210938 41.117188 13.367188 C 41.804688 13.132812 42.578125 12.933594 43.398438 12.769531 C 43.445312 12.757812 43.488281 12.75 43.535156 12.738281 C 44.855469 12.46875 46.296875 12.285156 47.800781 12.191406 C 47.871094 12.1875 47.941406 12.183594 48.015625 12.179688 C 48.996094 12.125 49.992188 12.136719 50.984375 12.136719 C 52.429688 12.167969 52.429688 12.167969 53.734375 12 C 53.6875 11.996094 53.644531 11.996094 53.597656 11.992188 C 51.164062 11.871094 51.164062 11.871094 50.199219 11.617188 C 50.128906 11.597656 50.128906 11.597656 50.054688 11.578125 C 49.601562 11.449219 49.285156 11.269531 49.199219 11.0625 C 49.144531 10.828125 49.375 10.621094 49.796875 10.441406 C 50.816406 10.082031 52.917969 10 54.199219 10.199219 Z M 54.199219 10.199219 "/>
<path style=" stroke:none;fill-rule:nonzero;fill:rgb(29.803923%,29.803923%,29.803923%);fill-opacity:1;" d="M 88.582031 18.1875 C 89.699219 18.5625 90.136719 19.128906 90.332031 19.65625 C 90.339844 19.671875 90.347656 19.6875 90.351562 19.707031 C 90.425781 19.921875 90.417969 20.140625 90.417969 20.359375 C 90.417969 20.382812 90.417969 20.40625 90.417969 20.425781 C 90.410156 22.558594 90.410156 22.558594 88.886719 23.140625 C 88.523438 23.246094 88.257812 23.246094 87.800781 23.230469 C 87.535156 23.199219 87.484375 23.171875 87.351562 23.082031 C 87.253906 22.992188 87.222656 22.898438 87.199219 22.800781 C 87.117188 22.8125 87.117188 22.8125 87.035156 22.824219 C 86.960938 22.835938 86.886719 22.847656 86.808594 22.855469 C 86.734375 22.867188 86.664062 22.878906 86.589844 22.890625 C 85.339844 23.050781 83.832031 23.003906 82.636719 22.808594 C 82.238281 22.730469 81.917969 22.628906 81.601562 22.511719 C 81.5625 22.5 81.523438 22.484375 81.484375 22.472656 C 80.648438 22.15625 80.441406 21.683594 80.457031 21.265625 C 80.507812 20.875 80.746094 20.523438 81.398438 20.207031 C 81.433594 20.191406 81.46875 20.175781 81.503906 20.15625 C 82.21875 19.832031 83.34375 19.667969 84.457031 19.613281 C 85.667969 19.566406 86.933594 19.632812 87.917969 19.90625 C 88.015625 19.933594 88.109375 19.960938 88.199219 19.992188 C 88.257812 19.59375 87.925781 19.144531 87.199219 18.839844 C 86.683594 18.640625 86.097656 18.554688 85.34375 18.542969 C 84.644531 18.539062 84.132812 18.601562 83.507812 18.710938 C 82.773438 18.84375 82.773438 18.84375 82.332031 18.792969 C 82.042969 18.738281 81.851562 18.6875 81.734375 18.574219 C 81.691406 18.453125 81.6875 18.347656 81.832031 18.234375 C 83.542969 17.554688 86.726562 17.628906 88.582031 18.1875 Z M 83.242188 20.597656 C 82.691406 20.855469 82.617188 21.167969 82.695312 21.484375 C 82.796875 21.742188 83.09375 21.945312 83.644531 22.113281 C 84.386719 22.296875 85.40625 22.308594 86.273438 22.261719 C 86.859375 22.203125 87.40625 22.074219 87.734375 21.886719 C 88.214844 21.539062 88.269531 21.179688 87.933594 20.808594 C 87.726562 20.621094 87.394531 20.484375 86.898438 20.394531 C 85.734375 20.21875 84.136719 20.253906 83.242188 20.597656 Z M 83.242188 20.597656 "/>
<path style=" stroke:none;fill-rule:nonzero;fill:rgb(29.803923%,29.803923%,29.803923%);fill-opacity:1;" d="M 36.175781 18.171875 C 37.640625 18.671875 38.007812 19.445312 38.074219 20.140625 C 38.113281 20.914062 37.878906 21.671875 37.367188 22.421875 C 37.347656 22.445312 37.332031 22.472656 37.3125 22.5 C 36.902344 23.074219 36.902344 23.074219 36.273438 23.210938 C 36.011719 23.25 35.746094 23.246094 35.464844 23.230469 C 35.191406 23.183594 35.042969 23.140625 34.933594 23.039062 C 34.921875 22.972656 34.921875 22.972656 34.925781 22.902344 C 34.925781 22.878906 34.925781 22.855469 34.929688 22.832031 C 34.929688 22.8125 34.933594 22.792969 34.933594 22.777344 C 34.886719 22.785156 34.835938 22.792969 34.785156 22.800781 C 33.394531 23.015625 31.949219 23.039062 30.519531 22.84375 C 29.484375 22.675781 28.824219 22.402344 28.398438 22.03125 C 27.9375 21.515625 27.980469 20.910156 28.667969 20.425781 C 29.234375 20.050781 30.074219 19.8125 31.199219 19.679688 C 32.519531 19.554688 33.90625 19.566406 35.132812 19.800781 C 35.386719 19.859375 35.628906 19.925781 35.867188 19.992188 C 35.824219 19.5625 35.574219 19.101562 34.71875 18.78125 C 34.085938 18.578125 33.367188 18.535156 32.539062 18.542969 C 32.171875 18.550781 31.863281 18.589844 31.535156 18.648438 C 30.382812 18.847656 30.382812 18.847656 29.921875 18.789062 C 29.640625 18.722656 29.441406 18.644531 29.332031 18.527344 C 29.292969 18.382812 29.375 18.285156 29.601562 18.167969 C 30.191406 17.914062 31.308594 17.792969 32.191406 17.761719 C 33.648438 17.730469 35.03125 17.828125 36.175781 18.171875 Z M 30.855469 20.605469 C 30.285156 20.878906 30.238281 21.234375 30.363281 21.5625 C 30.503906 21.789062 30.773438 21.988281 31.320312 22.121094 C 32.132812 22.285156 33.0625 22.316406 33.972656 22.257812 C 34.617188 22.1875 35.074219 22.054688 35.449219 21.855469 C 35.691406 21.671875 35.769531 21.496094 35.761719 21.292969 C 35.761719 21.257812 35.761719 21.257812 35.761719 21.222656 C 35.742188 20.941406 35.578125 20.699219 35 20.496094 C 33.902344 20.15625 31.820312 20.238281 30.855469 20.605469 Z M 30.855469 20.605469 "/>
<path style=" stroke:none;fill-rule:nonzero;fill:rgb(29.803923%,29.803923%,29.803923%);fill-opacity:1;" d="M 64.117188 18.1875 C 65.234375 18.5625 65.667969 19.128906 65.867188 19.65625 C 65.875 19.671875 65.878906 19.6875 65.886719 19.703125 C 65.960938 19.925781 65.949219 20.152344 65.949219 20.375 C 65.949219 20.398438 65.949219 20.417969 65.949219 20.441406 C 65.949219 20.816406 65.890625 21.179688 65.734375 21.550781 C 65.722656 21.574219 65.714844 21.597656 65.707031 21.621094 C 65.589844 21.902344 65.425781 22.179688 65.242188 22.457031 C 65.222656 22.484375 65.207031 22.511719 65.1875 22.539062 C 64.996094 22.8125 64.738281 23.070312 64.066406 23.230469 C 63.777344 23.246094 63.46875 23.253906 63.199219 23.210938 C 62.886719 23.121094 62.808594 23.023438 62.757812 22.886719 C 62.75 22.859375 62.742188 22.832031 62.734375 22.800781 C 62.652344 22.8125 62.652344 22.8125 62.566406 22.824219 C 62.492188 22.835938 62.417969 22.847656 62.339844 22.855469 C 62.269531 22.867188 62.195312 22.878906 62.121094 22.890625 C 60.875 23.050781 59.367188 23.003906 58.171875 22.808594 C 57.769531 22.730469 57.453125 22.628906 57.132812 22.511719 C 57.074219 22.492188 57.074219 22.492188 57.015625 22.472656 C 56.308594 22.199219 56.035156 21.792969 56 21.433594 C 55.996094 21.414062 55.996094 21.398438 55.992188 21.382812 C 55.953125 20.9375 56.289062 20.480469 57.078125 20.128906 C 58.011719 19.777344 59.230469 19.617188 60.5625 19.597656 C 61.742188 19.59375 62.839844 19.707031 63.734375 19.992188 C 63.792969 19.585938 63.464844 19.152344 62.734375 18.839844 C 62.214844 18.640625 61.628906 18.554688 60.878906 18.542969 C 60.179688 18.539062 59.667969 18.601562 59.039062 18.710938 C 58.316406 18.839844 58.316406 18.839844 57.867188 18.792969 C 57.5625 18.746094 57.410156 18.683594 57.265625 18.574219 C 57.214844 18.453125 57.21875 18.347656 57.367188 18.234375 C 59.078125 17.554688 62.257812 17.628906 64.117188 18.1875 Z M 58.773438 20.597656 C 58.21875 20.859375 58.152344 21.171875 58.230469 21.488281 C 58.335938 21.742188 58.632812 21.945312 59.175781 22.113281 C 59.917969 22.296875 60.941406 22.308594 61.804688 22.261719 C 62.464844 22.199219 62.984375 22.046875 63.34375 21.84375 C 63.757812 21.574219 63.773438 21.230469 63.578125 20.933594 C 63.410156 20.730469 63.148438 20.554688 62.640625 20.433594 C 61.460938 20.210938 59.726562 20.230469 58.773438 20.597656 Z M 58.773438 20.597656 "/>
<path style=" stroke:none;fill-rule:nonzero;fill:rgb(29.803923%,29.803923%,29.803923%);fill-opacity:1;" d="M 78.105469 18.277344 C 78.203125 18.3125 78.304688 18.347656 78.398438 18.382812 C 78.441406 18.398438 78.480469 18.414062 78.519531 18.425781 C 79.023438 18.621094 79.15625 18.84375 79.148438 19.101562 C 79.125 19.226562 79.019531 19.292969 78.765625 19.375 C 78.546875 19.429688 78.371094 19.445312 78.113281 19.445312 C 78.0625 19.445312 78.015625 19.445312 77.964844 19.449219 C 77.726562 19.4375 77.597656 19.417969 77.398438 19.367188 C 77.222656 19.269531 77.09375 19.160156 76.960938 19.050781 C 76.699219 18.859375 76.390625 18.769531 75.847656 18.6875 C 75.785156 18.679688 75.71875 18.671875 75.652344 18.664062 C 75.589844 18.65625 75.527344 18.648438 75.460938 18.640625 C 74.992188 18.597656 74.539062 18.59375 74.058594 18.59375 C 73.953125 18.59375 73.953125 18.59375 73.84375 18.59375 C 72.832031 18.589844 71.871094 18.703125 71.125 18.957031 C 69.921875 19.441406 69.574219 20.082031 69.578125 20.714844 C 69.578125 20.769531 69.578125 20.824219 69.574219 20.878906 C 69.570312 21.351562 69.847656 21.847656 70.800781 22.199219 C 71.71875 22.472656 72.867188 22.488281 74 22.464844 C 75.132812 22.414062 76.15625 22.207031 76.933594 21.910156 C 77.050781 21.859375 77.160156 21.800781 77.265625 21.746094 C 77.902344 21.414062 77.902344 21.414062 78.332031 21.359375 C 78.71875 21.34375 78.964844 21.371094 79.265625 21.457031 C 79.542969 21.566406 79.625 21.632812 79.617188 21.78125 C 79.511719 22.140625 78.527344 22.445312 77.796875 22.660156 C 76.054688 23.160156 74.171875 23.296875 71.964844 23.226562 C 70.652344 23.164062 69.457031 22.925781 68.621094 22.554688 C 67.1875 21.886719 67.066406 20.976562 67.347656 20.167969 C 67.613281 19.457031 68.351562 18.710938 69.972656 18.257812 C 72.1875 17.664062 75.941406 17.59375 78.105469 18.277344 Z M 78.105469 18.277344 "/>
<path style=" stroke:none;fill-rule:nonzero;fill:rgb(29.803923%,29.803923%,29.803923%);fill-opacity:1;" d="M 46.824219 15.074219 C 47.183594 15.148438 47.421875 15.238281 47.621094 15.367188 C 47.757812 15.558594 47.789062 15.738281 47.519531 15.917969 C 47.246094 16.058594 46.882812 16.167969 46.398438 16.199219 C 45.839844 16.21875 45.398438 16.1875 44.949219 16.0625 C 44.59375 15.945312 44.429688 15.804688 44.398438 15.632812 C 44.40625 15.441406 44.5625 15.300781 44.933594 15.167969 C 45.5 15.011719 46.15625 14.960938 46.824219 15.074219 Z M 46.824219 15.074219 "/>
<path style=" stroke:none;fill-rule:nonzero;fill:rgb(29.803923%,29.803923%,29.803923%);fill-opacity:1;" d="M 54.667969 15.3125 C 55.089844 15.46875 55.257812 15.59375 55.265625 15.816406 C 55.226562 15.960938 55.066406 16.089844 54.800781 16.199219 C 54.394531 16.320312 53.992188 16.375 53.464844 16.367188 C 52.921875 16.34375 52.554688 16.246094 52.21875 16.097656 C 51.976562 15.976562 51.90625 15.832031 51.949219 15.6875 C 52.054688 15.488281 52.347656 15.359375 52.800781 15.238281 C 52.972656 15.207031 52.972656 15.207031 53.132812 15.191406 C 53.191406 15.1875 53.25 15.179688 53.308594 15.175781 C 53.804688 15.160156 54.285156 15.191406 54.667969 15.3125 Z M 54.667969 15.3125 "/>
</g>
</svg>
